<svg xmlns="http://www.w3.org/2000/svg" viewBox="0 0 512 512"><defs><linearGradient id="g"><stop stop-color="#a78bfa"/><stop offset="1" stop-color="#6d28d9"/></linearGradient></defs><rect width="512" height="512" rx="120" fill="#08080a"/><rect x="56" y="56" width="400" height="400" rx="108" fill="url(#g)"/><path d="M329 169c-21-19-48-29-78-29-63 0-105 32-105 83 0 45 31 67 85 79 42 9 54 18 54 37 0 19-16 31-43 31-31 0-60-13-84-35l-35 43c31 31 72 48 118 48 69 0 113-34 113-91 0-47-29-69-88-82-38-8-51-16-51-33 0-16 14-27 37-27 25 0 47 9 66 24z" fill="#fff"/></svg>